<svg width="20" height="20" viewBox="0 0 20 20" fill="none" xmlns="http://www.w3.org/2000/svg">
<path d="M1.71833 10.2901C1.64888 10.103 1.64888 9.89715 1.71833 9.71006C2.39475 8.06993 3.54293 6.66759 5.01731 5.6808C6.49169 4.69402 8.22587 4.16724 10 4.16724C11.7741 4.16724 13.5083 4.69402 14.9827 5.6808C16.4571 6.66759 17.6052 8.06993 18.2817 9.71006C18.3511 9.89715 18.3511 10.103 18.2817 10.2901C17.6052 11.9302 16.4571 13.3325 14.9827 14.3193C13.5083 15.3061 11.7741 15.8329 10 15.8329C8.22587 15.8329 6.49169 15.3061 5.01731 14.3193C3.54293 13.3325 2.39475 11.9302 1.71833 10.2901Z" stroke="#64748B" stroke-width="1.66667" stroke-linecap="round" stroke-linejoin="round"/>
<path d="M10 12.5C11.3807 12.5 12.5 11.3807 12.5 10C12.5 8.61929 11.3807 7.5 10 7.5C8.61929 7.5 7.5 8.61929 7.5 10C7.5 11.3807 8.61929 12.5 10 12.5Z" stroke="#64748B" stroke-width="1.66667" stroke-linecap="round" stroke-linejoin="round"/>
<line x1="3.41329" y1="1.49278" x2="16.4133" y2="18.4928" stroke="#94A3B8" stroke-width="1.67"/>
</svg>
